<svg width="211" height="195" viewBox="0 0 211 195" fill="none" xmlns="http://www.w3.org/2000/svg">
<path d="M105.5 8L8 36.5C10.8 48.5 19.8333 51.1667 24 51C73.6667 51.8333 175.6 53 186 51C196.4 49 201 40.5 202 36.5L105.5 8Z" fill="#520104"/>
<path d="M8 186.5C8 186.5 8 171 24 171V61.5C31.6 53.9 50.8333 58.3333 53 61.5V171H69V61.5C76.6 53.9 94.8333 58.3333 97 61.5V171H113V61.5C120.6 53.9 138.833 58.3333 141 61.5V171H157V61.5C164.6 53.9 183.833 58.3333 186 61.5V171C203 171 202 186.5 202 186.5H8Z" fill="#520104"/>
</svg>
