<svg width="538" height="195" viewBox="0 0 538 195" fill="none" xmlns="http://www.w3.org/2000/svg">
<path d="M105.5 8L8 36.5C10.8 48.5 19.8333 51.1667 24 51C73.6667 51.8333 175.6 53 186 51C196.4 49 201 40.5 202 36.5L105.5 8Z" fill="#520104"/>
<path d="M8 186.5C8 186.5 8 171 24 171V61.5C31.6 53.9 50.8333 58.3333 53 61.5V171H69V61.5C76.6 53.9 94.8333 58.3333 97 61.5V171H113V61.5C120.6 53.9 138.833 58.3333 141 61.5V171H157V61.5C164.6 53.9 183.833 58.3333 186 61.5V171C203 171 202 186.5 202 186.5H8Z" fill="#520104"/>
<path d="M243.611 140.25V55.05H259.211V95.73L252.011 90.57H302.171L295.091 95.73V55.05H310.691V140.25H295.091V99.09L302.171 104.13H252.011L259.211 99.09V140.25H243.611ZM339.986 140.25V55.05H360.986L384.506 121.05L408.026 55.05H429.026V140.25H413.426V81.45L391.946 140.13H377.066L355.586 81.45V140.25H339.986ZM490.552 142.17C483.512 142.17 477.432 140.93 472.312 138.45C467.192 135.97 463.152 132.53 460.192 128.13C457.312 123.65 455.632 118.45 455.152 112.53L470.992 111.57C471.472 115.25 472.512 118.37 474.112 120.93C475.792 123.49 477.992 125.45 480.712 126.81C483.512 128.09 486.872 128.73 490.792 128.73C494.152 128.73 496.992 128.33 499.312 127.53C501.712 126.65 503.512 125.41 504.712 123.81C505.992 122.13 506.632 120.09 506.632 117.69C506.632 115.53 506.112 113.61 505.072 111.93C504.032 110.17 502.032 108.61 499.072 107.25C496.112 105.81 491.712 104.41 485.872 103.05C478.832 101.45 473.192 99.65 468.952 97.65C464.712 95.57 461.632 93.01 459.712 89.97C457.792 86.85 456.832 82.97 456.832 78.33C456.832 73.37 458.072 69.01 460.552 65.25C463.032 61.41 466.552 58.45 471.112 56.37C475.672 54.21 481.152 53.13 487.552 53.13C494.352 53.13 500.112 54.37 504.832 56.85C509.552 59.25 513.272 62.57 515.992 66.81C518.712 71.05 520.392 75.93 521.032 81.45L505.312 82.17C504.912 79.05 503.952 76.33 502.432 74.01C500.992 71.69 498.992 69.89 496.432 68.61C493.952 67.25 490.912 66.57 487.312 66.57C482.832 66.57 479.272 67.61 476.632 69.69C474.072 71.69 472.792 74.37 472.792 77.73C472.792 80.05 473.312 81.97 474.352 83.49C475.472 85.01 477.432 86.33 480.232 87.45C483.032 88.49 486.952 89.61 491.992 90.81C499.592 92.41 505.632 94.45 510.112 96.93C514.592 99.41 517.792 102.29 519.712 105.57C521.632 108.85 522.592 112.61 522.592 116.85C522.592 122.05 521.272 126.57 518.632 130.41C515.992 134.17 512.272 137.09 507.472 139.17C502.672 141.17 497.032 142.17 490.552 142.17Z" fill="#520104"/>
</svg>
