<svg width="538" height="250" viewBox="0 0 538 250" fill="none" xmlns="http://www.w3.org/2000/svg">
<path d="M105.5 8L8 36.5C10.8 48.5 19.8333 51.1667 24 51C73.6667 51.8333 175.6 53 186 51C196.4 49 201 40.5 202 36.5L105.5 8Z" fill="#520104"/>
<path d="M8 186.5C8 186.5 8 171 24 171V61.5C31.6 53.9 50.8333 58.3333 53 61.5V171H69V61.5C76.6 53.9 94.8333 58.3333 97 61.5V171H113V61.5C120.6 53.9 138.833 58.3333 141 61.5V171H157V61.5C164.6 53.9 183.833 58.3333 186 61.5V171C203 171 202 186.5 202 186.5H8Z" fill="#520104"/>
<path d="M243.611 140.25V55.05H259.211V95.73L252.011 90.57H302.171L295.091 95.73V55.05H310.691V140.25H295.091V99.09L302.171 104.13H252.011L259.211 99.09V140.25H243.611ZM339.986 140.25V55.05H360.986L384.506 121.05L408.026 55.05H429.026V140.25H413.426V81.45L391.946 140.13H377.066L355.586 81.45V140.25H339.986ZM490.552 142.17C483.512 142.17 477.432 140.93 472.312 138.45C467.192 135.97 463.152 132.53 460.192 128.13C457.312 123.65 455.632 118.45 455.152 112.53L470.992 111.57C471.472 115.25 472.512 118.37 474.112 120.93C475.792 123.49 477.992 125.45 480.712 126.81C483.512 128.09 486.872 128.73 490.792 128.73C494.152 128.73 496.992 128.33 499.312 127.53C501.712 126.65 503.512 125.41 504.712 123.81C505.992 122.13 506.632 120.09 506.632 117.69C506.632 115.53 506.112 113.61 505.072 111.93C504.032 110.17 502.032 108.61 499.072 107.25C496.112 105.81 491.712 104.41 485.872 103.05C478.832 101.45 473.192 99.65 468.952 97.65C464.712 95.57 461.632 93.01 459.712 89.97C457.792 86.85 456.832 82.97 456.832 78.33C456.832 73.37 458.072 69.01 460.552 65.25C463.032 61.41 466.552 58.45 471.112 56.37C475.672 54.21 481.152 53.13 487.552 53.13C494.352 53.13 500.112 54.37 504.832 56.85C509.552 59.25 513.272 62.57 515.992 66.81C518.712 71.05 520.392 75.93 521.032 81.45L505.312 82.17C504.912 79.05 503.952 76.33 502.432 74.01C500.992 71.69 498.992 69.89 496.432 68.61C493.952 67.25 490.912 66.57 487.312 66.57C482.832 66.57 479.272 67.61 476.632 69.69C474.072 71.69 472.792 74.37 472.792 77.73C472.792 80.05 473.312 81.97 474.352 83.49C475.472 85.01 477.432 86.33 480.232 87.45C483.032 88.49 486.952 89.61 491.992 90.81C499.592 92.41 505.632 94.45 510.112 96.93C514.592 99.41 517.792 102.29 519.712 105.57C521.632 108.85 522.592 112.61 522.592 116.85C522.592 122.05 521.272 126.57 518.632 130.41C515.992 134.17 512.272 137.09 507.472 139.17C502.672 141.17 497.032 142.17 490.552 142.17Z" fill="#520104"/>
<path d="M18.44 232.98C16.68 232.98 15.16 232.67 13.88 232.05C12.6 231.43 11.59 230.57 10.85 229.47C10.13 228.35 9.71 227.05 9.59 225.57L13.55 225.33C13.67 226.25 13.93 227.03 14.33 227.67C14.75 228.31 15.3 228.8 15.98 229.14C16.68 229.46 17.52 229.62 18.5 229.62C19.34 229.62 20.05 229.52 20.63 229.32C21.23 229.1 21.68 228.79 21.98 228.39C22.3 227.97 22.46 227.46 22.46 226.86C22.46 226.32 22.33 225.84 22.07 225.42C21.81 224.98 21.31 224.59 20.57 224.25C19.83 223.89 18.73 223.54 17.27 223.2C15.51 222.8 14.1 222.35 13.04 221.85C11.98 221.33 11.21 220.69 10.73 219.93C10.25 219.15 10.01 218.18 10.01 217.02C10.01 215.78 10.32 214.69 10.94 213.75C11.56 212.79 12.44 212.05 13.58 211.53C14.72 210.99 16.09 210.72 17.69 210.72C19.39 210.72 20.83 211.03 22.01 211.65C23.19 212.25 24.12 213.08 24.8 214.14C25.48 215.2 25.9 216.42 26.06 217.8L22.13 217.98C22.03 217.2 21.79 216.52 21.41 215.94C21.05 215.36 20.55 214.91 19.91 214.59C19.29 214.25 18.53 214.08 17.63 214.08C16.51 214.08 15.62 214.34 14.96 214.86C14.32 215.36 14 216.03 14 216.87C14 217.45 14.13 217.93 14.39 218.31C14.67 218.69 15.16 219.02 15.86 219.3C16.56 219.56 17.54 219.84 18.8 220.14C20.7 220.54 22.21 221.05 23.33 221.67C24.45 222.29 25.25 223.01 25.73 223.83C26.21 224.65 26.45 225.59 26.45 226.65C26.45 227.95 26.12 229.08 25.46 230.04C24.8 230.98 23.87 231.71 22.67 232.23C21.47 232.73 20.06 232.98 18.44 232.98ZM38.5091 232.98C36.7891 232.98 35.2791 232.65 33.9791 231.99C32.6991 231.33 31.7091 230.4 31.0091 229.2C30.3291 227.98 29.9891 226.54 29.9891 224.88V211.17H33.8891V224.88C33.8891 226.38 34.2891 227.54 35.0891 228.36C35.8891 229.18 37.0291 229.59 38.5091 229.59C39.9891 229.59 41.1291 229.18 41.9291 228.36C42.7491 227.54 43.1591 226.38 43.1591 224.88V211.17H47.0591V224.88C47.0591 226.54 46.7091 227.98 46.0091 229.2C45.3091 230.4 44.3191 231.33 43.0391 231.99C41.7791 232.65 40.2691 232.98 38.5091 232.98ZM59.4556 232.98C57.6956 232.98 56.1756 232.67 54.8956 232.05C53.6156 231.43 52.6056 230.57 51.8656 229.47C51.1456 228.35 50.7256 227.05 50.6056 225.57L54.5656 225.33C54.6856 226.25 54.9456 227.03 55.3456 227.67C55.7656 228.31 56.3156 228.8 56.9956 229.14C57.6956 229.46 58.5356 229.62 59.5156 229.62C60.3556 229.62 61.0656 229.52 61.6456 229.32C62.2456 229.1 62.6956 228.79 62.9956 228.39C63.3156 227.97 63.4756 227.46 63.4756 226.86C63.4756 226.32 63.3456 225.84 63.0856 225.42C62.8256 224.98 62.3256 224.59 61.5856 224.25C60.8456 223.89 59.7456 223.54 58.2856 223.2C56.5256 222.8 55.1156 222.35 54.0556 221.85C52.9956 221.33 52.2256 220.69 51.7456 219.93C51.2656 219.15 51.0256 218.18 51.0256 217.02C51.0256 215.78 51.3356 214.69 51.9556 213.75C52.5756 212.79 53.4556 212.05 54.5956 211.53C55.7356 210.99 57.1056 210.72 58.7056 210.72C60.4056 210.72 61.8456 211.03 63.0256 211.65C64.2056 212.25 65.1356 213.08 65.8156 214.14C66.4956 215.2 66.9156 216.42 67.0756 217.8L63.1456 217.98C63.0456 217.2 62.8056 216.52 62.4256 215.94C62.0656 215.36 61.5656 214.91 60.9256 214.59C60.3056 214.25 59.5456 214.08 58.6456 214.08C57.5256 214.08 56.6356 214.34 55.9756 214.86C55.3356 215.36 55.0156 216.03 55.0156 216.87C55.0156 217.45 55.1456 217.93 55.4056 218.31C55.6856 218.69 56.1756 219.02 56.8756 219.3C57.5756 219.56 58.5556 219.84 59.8156 220.14C61.7156 220.54 63.2256 221.05 64.3456 221.67C65.4656 222.29 66.2656 223.01 66.7456 223.83C67.2256 224.65 67.4656 225.59 67.4656 226.65C67.4656 227.95 67.1356 229.08 66.4756 230.04C65.8156 230.98 64.8856 231.71 63.6856 232.23C62.4856 232.73 61.0756 232.98 59.4556 232.98ZM71.0738 232.5V211.2H74.9738V231.3L72.8438 229.11H85.0838V232.5H71.0738ZM95.7418 232.5V211.2H99.6418V221.37L97.8418 220.08H110.382L108.612 221.37V211.2H112.512V232.5H108.612V222.21L110.382 223.47H97.8418L99.6418 222.21V232.5H95.7418ZM123.671 232.86C122.091 232.86 120.701 232.52 119.501 231.84C118.321 231.14 117.401 230.16 116.741 228.9C116.101 227.64 115.781 226.17 115.781 224.49C115.781 222.79 116.101 221.32 116.741 220.08C117.401 218.82 118.321 217.85 119.501 217.17C120.701 216.47 122.091 216.12 123.671 216.12C125.251 216.12 126.631 216.47 127.811 217.17C128.991 217.85 129.901 218.82 130.541 220.08C131.201 221.32 131.531 222.79 131.531 224.49C131.531 226.17 131.201 227.64 130.541 228.9C129.901 230.16 128.991 231.14 127.811 231.84C126.631 232.52 125.251 232.86 123.671 232.86ZM123.671 229.74C124.911 229.74 125.861 229.28 126.521 228.36C127.201 227.44 127.541 226.15 127.541 224.49C127.541 222.85 127.201 221.57 126.521 220.65C125.861 219.71 124.911 219.24 123.671 219.24C122.431 219.24 121.471 219.71 120.791 220.65C120.111 221.57 119.771 222.85 119.771 224.49C119.771 226.15 120.111 227.44 120.791 228.36C121.471 229.28 122.431 229.74 123.671 229.74ZM141.005 232.86C139.425 232.86 138.095 232.63 137.015 232.17C135.955 231.71 135.135 231.07 134.555 230.25C133.975 229.43 133.645 228.5 133.565 227.46L137.495 227.28C137.635 228.12 137.985 228.77 138.545 229.23C139.105 229.69 139.935 229.92 141.035 229.92C141.935 229.92 142.635 229.78 143.135 229.5C143.655 229.2 143.915 228.74 143.915 228.12C143.915 227.76 143.825 227.46 143.645 227.22C143.465 226.98 143.125 226.77 142.625 226.59C142.125 226.41 141.385 226.23 140.405 226.05C138.765 225.77 137.475 225.43 136.535 225.03C135.595 224.61 134.925 224.09 134.525 223.47C134.145 222.85 133.955 222.08 133.955 221.16C133.955 219.66 134.525 218.45 135.665 217.53C136.825 216.59 138.515 216.12 140.735 216.12C142.175 216.12 143.385 216.36 144.365 216.84C145.345 217.3 146.105 217.94 146.645 218.76C147.205 219.56 147.555 220.48 147.695 221.52L143.825 221.7C143.725 221.16 143.545 220.69 143.285 220.29C143.025 219.89 142.675 219.59 142.235 219.39C141.795 219.17 141.275 219.06 140.675 219.06C139.775 219.06 139.095 219.24 138.635 219.6C138.175 219.96 137.945 220.44 137.945 221.04C137.945 221.46 138.045 221.81 138.245 222.09C138.465 222.37 138.815 222.6 139.295 222.78C139.775 222.94 140.415 223.09 141.215 223.23C142.895 223.49 144.215 223.83 145.175 224.25C146.155 224.65 146.845 225.17 147.245 225.81C147.665 226.43 147.875 227.18 147.875 228.06C147.875 229.08 147.585 229.95 147.005 230.67C146.445 231.39 145.645 231.94 144.605 232.32C143.585 232.68 142.385 232.86 141.005 232.86ZM156.735 232.5C155.135 232.5 153.955 232.13 153.195 231.39C152.455 230.65 152.085 229.49 152.085 227.91V212.73H155.925V227.55C155.925 228.29 156.085 228.81 156.405 229.11C156.725 229.39 157.225 229.53 157.905 229.53H160.155V232.5H156.735ZM149.565 219.45V216.48H160.155V219.45H149.565ZM169.637 232.86C168.037 232.86 166.647 232.52 165.467 231.84C164.287 231.14 163.377 230.16 162.737 228.9C162.097 227.64 161.777 226.17 161.777 224.49C161.777 222.81 162.097 221.35 162.737 220.11C163.377 218.85 164.277 217.87 165.437 217.17C166.617 216.47 167.987 216.12 169.547 216.12C171.067 216.12 172.397 216.46 173.537 217.14C174.697 217.82 175.587 218.8 176.207 220.08C176.827 221.36 177.137 222.9 177.137 224.7V225.57H165.767C165.847 226.97 166.227 228.03 166.907 228.75C167.607 229.45 168.527 229.8 169.667 229.8C170.527 229.8 171.237 229.61 171.797 229.23C172.377 228.83 172.777 228.28 172.997 227.58L176.927 227.82C176.487 229.38 175.617 230.61 174.317 231.51C173.037 232.41 171.477 232.86 169.637 232.86ZM165.767 222.99H173.177C173.097 221.69 172.727 220.73 172.067 220.11C171.407 219.47 170.567 219.15 169.547 219.15C168.527 219.15 167.677 219.48 166.997 220.14C166.337 220.8 165.927 221.75 165.767 222.99ZM184.126 232.5C182.966 232.5 182.036 232.2 181.336 231.6C180.636 231 180.286 230.04 180.286 228.72V211.2H184.126V228.33C184.126 228.73 184.226 229.03 184.426 229.23C184.646 229.43 184.946 229.53 185.326 229.53H186.496V232.5H184.126ZM196.582 232.5V211.2H201.832L207.712 227.7L213.592 211.2H218.842V232.5H214.942V217.8L209.572 232.47H205.852L200.482 217.8V232.5H196.582ZM227.709 232.86C226.029 232.86 224.679 232.48 223.659 231.72C222.639 230.94 222.129 229.86 222.129 228.48C222.129 227.1 222.559 226.02 223.419 225.24C224.279 224.46 225.589 223.9 227.349 223.56L232.659 222.51C232.659 221.37 232.399 220.52 231.879 219.96C231.359 219.38 230.589 219.09 229.569 219.09C228.649 219.09 227.919 219.31 227.379 219.75C226.859 220.17 226.499 220.78 226.299 221.58L222.399 221.4C222.719 219.7 223.499 218.4 224.739 217.5C225.979 216.58 227.589 216.12 229.569 216.12C231.849 216.12 233.569 216.7 234.729 217.86C235.909 219 236.499 220.64 236.499 222.78V228.6C236.499 229.02 236.569 229.31 236.709 229.47C236.869 229.63 237.099 229.71 237.399 229.71H237.909V232.5C237.789 232.54 237.589 232.57 237.309 232.59C237.049 232.61 236.779 232.62 236.499 232.62C235.839 232.62 235.249 232.52 234.729 232.32C234.209 232.1 233.809 231.73 233.529 231.21C233.249 230.67 233.109 229.94 233.109 229.02L233.439 229.26C233.279 229.96 232.929 230.59 232.389 231.15C231.869 231.69 231.209 232.11 230.409 232.41C229.609 232.71 228.709 232.86 227.709 232.86ZM228.489 230.07C229.349 230.07 230.089 229.9 230.709 229.56C231.329 229.22 231.809 228.75 232.149 228.15C232.489 227.55 232.659 226.84 232.659 226.02V225.12L228.519 225.96C227.659 226.14 227.039 226.41 226.659 226.77C226.299 227.11 226.119 227.56 226.119 228.12C226.119 228.74 226.319 229.22 226.719 229.56C227.139 229.9 227.729 230.07 228.489 230.07ZM240.403 232.5V216.48H243.883L244.033 220.98L243.583 220.8C243.743 219.68 244.073 218.78 244.573 218.1C245.073 217.42 245.683 216.92 246.403 216.6C247.123 216.28 247.913 216.12 248.773 216.12C249.953 216.12 250.943 216.38 251.743 216.9C252.563 217.42 253.183 218.14 253.603 219.06C254.023 219.96 254.233 221.01 254.233 222.21V232.5H250.393V223.44C250.393 222.54 250.303 221.78 250.123 221.16C249.943 220.54 249.643 220.07 249.223 219.75C248.823 219.41 248.283 219.24 247.603 219.24C246.583 219.24 245.763 219.6 245.143 220.32C244.543 221.04 244.243 222.08 244.243 223.44V232.5H240.403ZM262.719 232.86C261.039 232.86 259.689 232.48 258.669 231.72C257.649 230.94 257.139 229.86 257.139 228.48C257.139 227.1 257.569 226.02 258.429 225.24C259.289 224.46 260.599 223.9 262.359 223.56L267.669 222.51C267.669 221.37 267.409 220.52 266.889 219.96C266.369 219.38 265.599 219.09 264.579 219.09C263.659 219.09 262.929 219.31 262.389 219.75C261.869 220.17 261.509 220.78 261.309 221.58L257.409 221.4C257.729 219.7 258.509 218.4 259.749 217.5C260.989 216.58 262.599 216.12 264.579 216.12C266.859 216.12 268.579 216.7 269.739 217.86C270.919 219 271.509 220.64 271.509 222.78V228.6C271.509 229.02 271.579 229.31 271.719 229.47C271.879 229.63 272.109 229.71 272.409 229.71H272.919V232.5C272.799 232.54 272.599 232.57 272.319 232.59C272.059 232.61 271.789 232.62 271.509 232.62C270.849 232.62 270.259 232.52 269.739 232.32C269.219 232.1 268.819 231.73 268.539 231.21C268.259 230.67 268.119 229.94 268.119 229.02L268.449 229.26C268.289 229.96 267.939 230.59 267.399 231.15C266.879 231.69 266.219 232.11 265.419 232.41C264.619 232.71 263.719 232.86 262.719 232.86ZM263.499 230.07C264.359 230.07 265.099 229.9 265.719 229.56C266.339 229.22 266.819 228.75 267.159 228.15C267.499 227.55 267.669 226.84 267.669 226.02V225.12L263.529 225.96C262.669 226.14 262.049 226.41 261.669 226.77C261.309 227.11 261.129 227.56 261.129 228.12C261.129 228.74 261.329 229.22 261.729 229.56C262.149 229.9 262.739 230.07 263.499 230.07ZM282.077 237.36C280.677 237.36 279.477 237.17 278.477 236.79C277.477 236.41 276.667 235.87 276.047 235.17C275.447 234.49 275.027 233.7 274.787 232.8L278.747 232.53C278.947 233.13 279.287 233.6 279.767 233.94C280.267 234.28 281.037 234.45 282.077 234.45C283.257 234.45 284.167 234.18 284.807 233.64C285.447 233.12 285.767 232.3 285.767 231.18V229.14C285.387 229.92 284.777 230.55 283.937 231.03C283.097 231.49 282.157 231.72 281.117 231.72C279.797 231.72 278.617 231.4 277.577 230.76C276.557 230.1 275.757 229.19 275.177 228.03C274.597 226.85 274.307 225.49 274.307 223.95C274.307 222.41 274.587 221.06 275.147 219.9C275.727 218.72 276.527 217.8 277.547 217.14C278.567 216.46 279.737 216.12 281.057 216.12C282.217 216.12 283.217 216.38 284.057 216.9C284.897 217.42 285.507 218.11 285.887 218.97V216.48H289.637V231.09C289.637 232.45 289.317 233.6 288.677 234.54C288.057 235.48 287.177 236.18 286.037 236.64C284.917 237.12 283.597 237.36 282.077 237.36ZM282.017 228.72C283.157 228.72 284.067 228.3 284.747 227.46C285.427 226.6 285.777 225.42 285.797 223.92C285.817 222.92 285.667 222.07 285.347 221.37C285.047 220.65 284.607 220.1 284.027 219.72C283.467 219.32 282.797 219.12 282.017 219.12C280.837 219.12 279.917 219.56 279.257 220.44C278.617 221.3 278.297 222.46 278.297 223.92C278.297 225.38 278.627 226.55 279.287 227.43C279.967 228.29 280.877 228.72 282.017 228.72ZM300.477 232.86C298.877 232.86 297.487 232.52 296.307 231.84C295.127 231.14 294.217 230.16 293.577 228.9C292.937 227.64 292.617 226.17 292.617 224.49C292.617 222.81 292.937 221.35 293.577 220.11C294.217 218.85 295.117 217.87 296.277 217.17C297.457 216.47 298.827 216.12 300.387 216.12C301.907 216.12 303.237 216.46 304.377 217.14C305.537 217.82 306.427 218.8 307.047 220.08C307.667 221.36 307.977 222.9 307.977 224.7V225.57H296.607C296.687 226.97 297.067 228.03 297.747 228.75C298.447 229.45 299.367 229.8 300.507 229.8C301.367 229.8 302.077 229.61 302.637 229.23C303.217 228.83 303.617 228.28 303.837 227.58L307.767 227.82C307.327 229.38 306.457 230.61 305.157 231.51C303.877 232.41 302.317 232.86 300.477 232.86ZM296.607 222.99H304.017C303.937 221.69 303.567 220.73 302.907 220.11C302.247 219.47 301.407 219.15 300.387 219.15C299.367 219.15 298.517 219.48 297.837 220.14C297.177 220.8 296.767 221.75 296.607 222.99ZM310.979 232.5V216.48H314.459L314.579 220.41L314.219 220.23C314.399 219.37 314.709 218.64 315.149 218.04C315.609 217.42 316.159 216.95 316.799 216.63C317.459 216.29 318.179 216.12 318.959 216.12C320.319 216.12 321.419 216.51 322.259 217.29C323.099 218.05 323.629 219.1 323.849 220.44H323.339C323.519 219.5 323.829 218.72 324.269 218.1C324.709 217.46 325.259 216.97 325.919 216.63C326.599 216.29 327.359 216.12 328.199 216.12C329.299 216.12 330.249 216.36 331.049 216.84C331.849 217.3 332.459 217.98 332.879 218.88C333.319 219.78 333.539 220.89 333.539 222.21V232.5H329.699V223.2C329.699 221.88 329.469 220.89 329.009 220.23C328.569 219.57 327.889 219.24 326.969 219.24C326.349 219.24 325.819 219.4 325.379 219.72C324.939 220.04 324.599 220.51 324.359 221.13C324.139 221.73 324.029 222.46 324.029 223.32V232.5H320.459V223.32C320.459 222 320.259 220.99 319.859 220.29C319.459 219.59 318.769 219.24 317.789 219.24C317.169 219.24 316.639 219.4 316.199 219.72C315.779 220.04 315.439 220.51 315.179 221.13C314.939 221.73 314.819 222.46 314.819 223.32V232.5H310.979ZM344.276 232.86C342.676 232.86 341.286 232.52 340.106 231.84C338.926 231.14 338.016 230.16 337.376 228.9C336.736 227.64 336.416 226.17 336.416 224.49C336.416 222.81 336.736 221.35 337.376 220.11C338.016 218.85 338.916 217.87 340.076 217.17C341.256 216.47 342.626 216.12 344.186 216.12C345.706 216.12 347.036 216.46 348.176 217.14C349.336 217.82 350.226 218.8 350.846 220.08C351.466 221.36 351.776 222.9 351.776 224.7V225.57H340.406C340.486 226.97 340.866 228.03 341.546 228.75C342.246 229.45 343.166 229.8 344.306 229.8C345.166 229.8 345.876 229.61 346.436 229.23C347.016 228.83 347.416 228.28 347.636 227.58L351.566 227.82C351.126 229.38 350.256 230.61 348.956 231.51C347.676 232.41 346.116 232.86 344.276 232.86ZM340.406 222.99H347.816C347.736 221.69 347.366 220.73 346.706 220.11C346.046 219.47 345.206 219.15 344.186 219.15C343.166 219.15 342.316 219.48 341.636 220.14C340.976 220.8 340.566 221.75 340.406 222.99ZM354.778 232.5V216.48H358.258L358.408 220.98L357.958 220.8C358.118 219.68 358.448 218.78 358.948 218.1C359.448 217.42 360.058 216.92 360.778 216.6C361.498 216.28 362.288 216.12 363.148 216.12C364.328 216.12 365.318 216.38 366.118 216.9C366.938 217.42 367.558 218.14 367.978 219.06C368.398 219.96 368.608 221.01 368.608 222.21V232.5H364.768V223.44C364.768 222.54 364.678 221.78 364.498 221.16C364.318 220.54 364.018 220.07 363.598 219.75C363.198 219.41 362.658 219.24 361.978 219.24C360.958 219.24 360.138 219.6 359.518 220.32C358.918 221.04 358.618 222.08 358.618 223.44V232.5H354.778ZM378.102 232.5C376.502 232.5 375.322 232.13 374.562 231.39C373.822 230.65 373.452 229.49 373.452 227.91V212.73H377.292V227.55C377.292 228.29 377.452 228.81 377.772 229.11C378.092 229.39 378.592 229.53 379.272 229.53H381.522V232.5H378.102ZM370.932 219.45V216.48H381.522V219.45H370.932ZM399.915 232.98C398.155 232.98 396.635 232.67 395.355 232.05C394.075 231.43 393.065 230.57 392.325 229.47C391.605 228.35 391.185 227.05 391.065 225.57L395.025 225.33C395.145 226.25 395.405 227.03 395.805 227.67C396.225 228.31 396.775 228.8 397.455 229.14C398.155 229.46 398.995 229.62 399.975 229.62C400.815 229.62 401.525 229.52 402.105 229.32C402.705 229.1 403.155 228.79 403.455 228.39C403.775 227.97 403.935 227.46 403.935 226.86C403.935 226.32 403.805 225.84 403.545 225.42C403.285 224.98 402.785 224.59 402.045 224.25C401.305 223.89 400.205 223.54 398.745 223.2C396.985 222.8 395.575 222.35 394.515 221.85C393.455 221.33 392.685 220.69 392.205 219.93C391.725 219.15 391.485 218.18 391.485 217.02C391.485 215.78 391.795 214.69 392.415 213.75C393.035 212.79 393.915 212.05 395.055 211.53C396.195 210.99 397.565 210.72 399.165 210.72C400.865 210.72 402.305 211.03 403.485 211.65C404.665 212.25 405.595 213.08 406.275 214.14C406.955 215.2 407.375 216.42 407.535 217.8L403.605 217.98C403.505 217.2 403.265 216.52 402.885 215.94C402.525 215.36 402.025 214.91 401.385 214.59C400.765 214.25 400.005 214.08 399.105 214.08C397.985 214.08 397.095 214.34 396.435 214.86C395.795 215.36 395.475 216.03 395.475 216.87C395.475 217.45 395.605 217.93 395.865 218.31C396.145 218.69 396.635 219.02 397.335 219.3C398.035 219.56 399.015 219.84 400.275 220.14C402.175 220.54 403.685 221.05 404.805 221.67C405.925 222.29 406.725 223.01 407.205 223.83C407.685 224.65 407.925 225.59 407.925 226.65C407.925 227.95 407.595 229.08 406.935 230.04C406.275 230.98 405.345 231.71 404.145 232.23C402.945 232.73 401.535 232.98 399.915 232.98ZM412.197 237V234.03H414.237C414.757 234.03 415.137 233.95 415.377 233.79C415.637 233.63 415.837 233.36 415.977 232.98L416.427 231.87H415.317L409.587 216.48H413.577L417.597 228.27L421.437 216.48H425.427L419.157 234.18C418.797 235.18 418.287 235.9 417.627 236.34C416.987 236.78 416.087 237 414.927 237H412.197ZM433.827 232.86C432.247 232.86 430.917 232.63 429.837 232.17C428.777 231.71 427.957 231.07 427.377 230.25C426.797 229.43 426.467 228.5 426.387 227.46L430.317 227.28C430.457 228.12 430.807 228.77 431.367 229.23C431.927 229.69 432.757 229.92 433.857 229.92C434.757 229.92 435.457 229.78 435.957 229.5C436.477 229.2 436.737 228.74 436.737 228.12C436.737 227.76 436.647 227.46 436.467 227.22C436.287 226.98 435.947 226.77 435.447 226.59C434.947 226.41 434.207 226.23 433.227 226.05C431.587 225.77 430.297 225.43 429.357 225.03C428.417 224.61 427.747 224.09 427.347 223.47C426.967 222.85 426.777 222.08 426.777 221.16C426.777 219.66 427.347 218.45 428.487 217.53C429.647 216.59 431.337 216.12 433.557 216.12C434.997 216.12 436.207 216.36 437.187 216.84C438.167 217.3 438.927 217.94 439.467 218.76C440.027 219.56 440.377 220.48 440.517 221.52L436.647 221.7C436.547 221.16 436.367 220.69 436.107 220.29C435.847 219.89 435.497 219.59 435.057 219.39C434.617 219.17 434.097 219.06 433.497 219.06C432.597 219.06 431.917 219.24 431.457 219.6C430.997 219.96 430.767 220.44 430.767 221.04C430.767 221.46 430.867 221.81 431.067 222.09C431.287 222.37 431.637 222.6 432.117 222.78C432.597 222.94 433.237 223.09 434.037 223.23C435.717 223.49 437.037 223.83 437.997 224.25C438.977 224.65 439.667 225.17 440.067 225.81C440.487 226.43 440.697 227.18 440.697 228.06C440.697 229.08 440.407 229.95 439.827 230.67C439.267 231.39 438.467 231.94 437.427 232.32C436.407 232.68 435.207 232.86 433.827 232.86ZM449.557 232.5C447.957 232.5 446.777 232.13 446.017 231.39C445.277 230.65 444.907 229.49 444.907 227.91V212.73H448.747V227.55C448.747 228.29 448.907 228.81 449.227 229.11C449.547 229.39 450.047 229.53 450.727 229.53H452.977V232.5H449.557ZM442.387 219.45V216.48H452.977V219.45H442.387ZM462.46 232.86C460.86 232.86 459.47 232.52 458.29 231.84C457.11 231.14 456.2 230.16 455.56 228.9C454.92 227.64 454.6 226.17 454.6 224.49C454.6 222.81 454.92 221.35 455.56 220.11C456.2 218.85 457.1 217.87 458.26 217.17C459.44 216.47 460.81 216.12 462.37 216.12C463.89 216.12 465.22 216.46 466.36 217.14C467.52 217.82 468.41 218.8 469.03 220.08C469.65 221.36 469.96 222.9 469.96 224.7V225.57H458.59C458.67 226.97 459.05 228.03 459.73 228.75C460.43 229.45 461.35 229.8 462.49 229.8C463.35 229.8 464.06 229.61 464.62 229.23C465.2 228.83 465.6 228.28 465.82 227.58L469.75 227.82C469.31 229.38 468.44 230.61 467.14 231.51C465.86 232.41 464.3 232.86 462.46 232.86ZM458.59 222.99H466C465.92 221.69 465.55 220.73 464.89 220.11C464.23 219.47 463.39 219.15 462.37 219.15C461.35 219.15 460.5 219.48 459.82 220.14C459.16 220.8 458.75 221.75 458.59 222.99ZM472.961 232.5V216.48H476.441L476.561 220.41L476.201 220.23C476.381 219.37 476.691 218.64 477.131 218.04C477.591 217.42 478.141 216.95 478.781 216.63C479.441 216.29 480.161 216.12 480.941 216.12C482.301 216.12 483.401 216.51 484.241 217.29C485.081 218.05 485.611 219.1 485.831 220.44H485.321C485.501 219.5 485.811 218.72 486.251 218.1C486.691 217.46 487.241 216.97 487.901 216.63C488.581 216.29 489.341 216.12 490.181 216.12C491.281 216.12 492.231 216.36 493.031 216.84C493.831 217.3 494.441 217.98 494.861 218.88C495.301 219.78 495.521 220.89 495.521 222.21V232.5H491.681V223.2C491.681 221.88 491.451 220.89 490.991 220.23C490.551 219.57 489.871 219.24 488.951 219.24C488.331 219.24 487.801 219.4 487.361 219.72C486.921 220.04 486.581 220.51 486.341 221.13C486.121 221.73 486.011 222.46 486.011 223.32V232.5H482.441V223.32C482.441 222 482.241 220.99 481.841 220.29C481.441 219.59 480.751 219.24 479.771 219.24C479.151 219.24 478.621 219.4 478.181 219.72C477.761 220.04 477.421 220.51 477.161 221.13C476.921 221.73 476.801 222.46 476.801 223.32V232.5H472.961Z" fill="#520104"/>
</svg>
